<svg height='100px' width='100px'  fill="#000000" xmlns="http://www.w3.org/2000/svg" xmlns:xlink="http://www.w3.org/1999/xlink" version="1.1" x="0px" y="0px" viewBox="0 0 100 100" style="enable-background:new 0 0 100 100;" xml:space="preserve"><path d="M78.2988281,88.4003906c0.4970703,0,0.9003906-0.4033203,0.9003906-0.9003906v-75  c0-0.4970703-0.4033203-0.9003906-0.9003906-0.9003906H21.7011719c-0.4970703,0-0.9003906,0.4033203-0.9003906,0.9003906v75  c0,0.4970703,0.4033203,0.9003906,0.9003906,0.9003906H78.2988281z M22.6015625,13.4003906h54.796875v73.1992188h-54.796875  V13.4003906z"></path><path d="M65.1044922,22.0166016H34.8955078c-0.4970703,0-0.9003906,0.4033203-0.9003906,0.9003906v7.9853516  c0,0.4970703,0.4033203,0.9003906,0.9003906,0.9003906h30.2089844c0.4970703,0,0.9003906-0.4033203,0.9003906-0.9003906v-7.9853516  C66.0048828,22.4199219,65.6015625,22.0166016,65.1044922,22.0166016z M54.0478516,23.8173828v6.1845703h-8.0957031v-6.1845703  H54.0478516z M35.7958984,23.8173828h8.3554688v6.1845703h-8.3554688V23.8173828z M64.2041016,30.0019531h-8.3554688v-6.1845703  h8.3554688V30.0019531z"></path><path d="M43.9033203,41.8076172c-0.3574219,0-0.6806641,0.2119141-0.8242188,0.5390625  c-0.2333984,0.5322266-5.703125,13.0742188-5.703125,17.0605469c0,4.3330078,2.9287109,7.859375,6.5273438,7.859375  s6.5263672-3.5263672,6.5263672-7.859375c0-3.9863281-5.46875-16.5283203-5.7021484-17.0595703  C44.5849609,42.0195313,44.2607422,41.8076172,43.9033203,41.8076172z M43.9033203,65.4658203  c-2.6064453,0-4.7265625-2.7177734-4.7265625-6.0585938c0-2.5546875,2.9101563-10.0605469,4.7265625-14.40625  c1.8154297,4.3457031,4.7255859,11.8505859,4.7255859,14.40625C48.6289063,62.7480469,46.5087891,65.4658203,43.9033203,65.4658203z  "></path><path d="M57.6005859,52.1669922c-0.3574219,0-0.6806641,0.2119141-0.8242188,0.5390625  c-0.4296875,0.9824219-4.1992188,9.6767578-4.1992188,12.5976563c0,3.3085938,2.2539063,6,5.0234375,6  s5.0234375-2.6914063,5.0234375-6c0-2.9208984-3.7695313-11.6152344-4.1992188-12.5976563  C58.28125,52.3789063,57.9580078,52.1669922,57.6005859,52.1669922z M57.6005859,69.5029297  c-1.7773438,0-3.2226563-1.8837891-3.2226563-4.1992188c0-1.7363281,1.8964844-6.7148438,3.2226563-9.9296875  c1.3261719,3.2138672,3.2226563,8.1923828,3.2226563,9.9296875C60.8232422,67.6191406,59.3779297,69.5029297,57.6005859,69.5029297z  "></path></svg>